<?xml version="1.0" encoding="utf-8"?>
<!-- Generator: Adobe Illustrator 18.1.1, SVG Export Plug-In . SVG Version: 6.00 Build 0)  -->
<svg version="1.1" id="Layer_1" xmlns="http://www.w3.org/2000/svg" xmlns:xlink="http://www.w3.org/1999/xlink" x="0px" y="0px"
	 viewBox="0 0 118.1 36" enable-background="new 0 0 118.1 36" xml:space="preserve">
<g>
	<path fill="#63B3E8" d="M9.4,26.1l3.9-18c-0.5,0-1,0.1-1.4,0.3c-0.4,0.2-0.8,0.5-1.1,0.9s-0.5,1-0.7,1.7s-0.3,1.6-0.3,2.7
		c0,0.3,0,0.6,0.1,0.8s0.1,0.4,0.1,0.5c0,0.1,0.1,0.2,0.1,0.3c0,0.1,0.1,0.1,0.1,0.2c-0.5,0-0.9,0-1.2-0.1c-0.4-0.1-0.7-0.2-0.9-0.4
		c-0.2-0.2-0.4-0.5-0.6-0.8c-0.1-0.3-0.2-0.7-0.2-1.2c0-0.9,0.2-1.8,0.5-2.6c0.3-0.8,0.9-1.6,1.6-2.2c0.7-0.6,1.7-1.2,2.8-1.6
		c1.2-0.4,2.6-0.6,4.2-0.6c0.3,0,0.6,0,0.9,0.1C17.7,6,18,6,18.4,6.1s0.8,0.1,1.2,0.1s0.8,0.1,1.3,0.1c0.4,0,0.8,0,1.2-0.1
		c0.4,0,0.8-0.1,1.2-0.3c-0.1,0.3-0.2,0.6-0.3,0.9c-0.1,0.3-0.2,0.6-0.4,1S22.3,8.4,22,8.6c-0.3,0.2-0.7,0.4-1.2,0.5
		c-0.6,0-1.3,0-1.9-0.1c-0.6-0.1-1.2-0.2-1.9-0.4L15.9,14h3.9l-0.4,2h-3.9l-2.2,10.1H9.4z"/>
	<path fill="#63B3E8" d="M27.7,21.3c-0.3,0.7-0.5,1.4-0.8,1.9c-0.3,0.5-0.6,1-1,1.4c-0.3,0.4-0.7,0.7-1,0.9c-0.4,0.2-0.7,0.4-1,0.5
		c-0.3,0.1-0.7,0.2-1,0.2c-0.3,0-0.6,0.1-0.8,0.1c-0.4,0-0.8-0.1-1.1-0.2s-0.7-0.3-0.9-0.6c-0.3-0.3-0.5-0.6-0.6-1s-0.2-0.9-0.2-1.5
		c0-0.2,0-0.5,0.1-0.8s0.1-0.6,0.2-1l2.9-13.5l4-0.5l-3.1,14.5c0,0.1-0.1,0.3-0.1,0.4s0,0.3,0,0.4c0,0.4,0.1,0.6,0.3,0.8
		s0.5,0.2,0.8,0.2c0.3,0,0.5-0.1,0.8-0.2c0.2-0.1,0.5-0.3,0.7-0.5c0.2-0.2,0.4-0.5,0.6-0.8s0.3-0.6,0.4-1H27.7z"/>
	<path fill="#63B3E8" d="M34.9,21.3c-0.3,0.7-0.5,1.4-0.8,1.9c-0.3,0.5-0.6,1-1,1.4c-0.3,0.4-0.7,0.7-1,0.9c-0.4,0.2-0.7,0.4-1,0.5
		c-0.3,0.1-0.7,0.2-1,0.2c-0.3,0-0.6,0.1-0.8,0.1c-0.4,0-0.8-0.1-1.1-0.2s-0.7-0.3-0.9-0.6c-0.3-0.3-0.5-0.6-0.6-1s-0.2-0.9-0.2-1.5
		c0-0.2,0-0.5,0.1-0.8s0.1-0.6,0.2-1l1.8-8.6h3.9l-1.9,9.2c0,0.1-0.1,0.3-0.1,0.4s0,0.3,0,0.4c0,0.4,0.1,0.6,0.3,0.8
		s0.5,0.2,0.8,0.2c0.3,0,0.5-0.1,0.8-0.2c0.2-0.1,0.5-0.3,0.7-0.5c0.2-0.2,0.4-0.5,0.6-0.8s0.3-0.6,0.4-1H34.9z M33.2,9.1
		c0,0.3-0.1,0.6-0.2,0.8c-0.1,0.3-0.3,0.5-0.5,0.7s-0.4,0.3-0.7,0.4c-0.3,0.1-0.5,0.2-0.8,0.2c-0.3,0-0.6-0.1-0.8-0.2
		c-0.3-0.1-0.5-0.3-0.7-0.4c-0.2-0.2-0.3-0.4-0.5-0.7c-0.1-0.3-0.2-0.5-0.2-0.8s0.1-0.6,0.2-0.8c0.1-0.3,0.3-0.5,0.5-0.7
		c0.2-0.2,0.4-0.4,0.7-0.5s0.5-0.2,0.8-0.2c0.3,0,0.6,0.1,0.8,0.2s0.5,0.3,0.7,0.5S32.9,8,33,8.2C33.2,8.5,33.2,8.8,33.2,9.1z"/>
	<path fill="#63B3E8" d="M45,21.3c-0.4,0.6-0.8,1.2-1.3,1.8c-0.5,0.6-1,1.1-1.6,1.6c-0.6,0.5-1.3,0.8-2,1.1s-1.6,0.4-2.4,0.4
		c-0.6,0-1.2-0.1-1.7-0.2c-0.5-0.2-1-0.4-1.3-0.8c-0.4-0.3-0.7-0.8-0.8-1.3s-0.3-1.2-0.3-2c0-0.5,0.1-1.1,0.2-1.8
		c0.1-0.7,0.3-1.4,0.5-2.1s0.5-1.4,0.9-2.1c0.4-0.7,0.8-1.3,1.4-1.8c0.5-0.5,1.2-1,1.9-1.3c0.7-0.3,1.5-0.5,2.4-0.5
		c0.6,0,1.1,0.1,1.5,0.2c0.4,0.1,0.7,0.3,0.9,0.6s0.4,0.5,0.5,0.8c0.1,0.3,0.1,0.6,0.1,0.9c0,0.3,0,0.6-0.1,0.9
		c-0.1,0.2-0.2,0.4-0.3,0.6c-0.1,0.2-0.3,0.3-0.5,0.4c-0.2,0.1-0.4,0.1-0.6,0.1c-0.3,0-0.6-0.1-0.9-0.3c0.2-0.6,0.3-1.1,0.3-1.6
		c0-0.3-0.1-0.6-0.2-0.8c-0.1-0.2-0.3-0.3-0.6-0.3c-0.3,0-0.6,0.1-0.8,0.4c-0.3,0.3-0.6,0.6-0.8,1s-0.5,0.9-0.7,1.4
		c-0.2,0.5-0.4,1.1-0.6,1.7c-0.2,0.6-0.3,1.2-0.4,1.8c-0.1,0.6-0.1,1.1-0.1,1.6c0,0.5,0,0.8,0.1,1.1c0.1,0.3,0.2,0.5,0.4,0.7
		c0.2,0.2,0.4,0.3,0.6,0.3C38.7,24,39,24,39.3,24c0.5,0,1-0.1,1.5-0.2c0.4-0.1,0.8-0.3,1.2-0.6c0.4-0.2,0.7-0.5,1.1-0.9
		c0.3-0.3,0.7-0.7,1-1.1H45z"/>
	<path fill="#63B3E8" d="M54.9,21.8c0,0.1-0.1,0.3-0.1,0.4c0,0.1,0,0.3,0,0.4c0,0.3,0.1,0.5,0.2,0.7s0.4,0.3,0.8,0.3
		c0.2,0,0.3,0,0.4,0c0.1,0,0.2,0,0.2,0s0.1,0,0.2-0.1c0,0,0.1,0,0.1-0.1c0,0.5-0.2,0.9-0.3,1.2c-0.2,0.3-0.4,0.6-0.7,0.9
		c-0.3,0.2-0.5,0.4-0.8,0.5c-0.3,0.1-0.5,0.2-0.7,0.2c-1.1,0-2-0.3-2.5-0.8c-0.6-0.5-0.9-1.3-0.9-2.3c0-0.4,0.1-0.9,0.2-1.4l0.2-1.1
		c0-0.2,0.1-0.3,0.1-0.5s0-0.3,0-0.5c0-0.4-0.1-0.7-0.2-0.9s-0.4-0.4-0.8-0.4c-0.3,0-0.6,0.1-0.9,0.3c-0.3,0.2-0.7,0.4-1,0.7
		L47,26.1h-3.9L47,7.8l4-0.5l-2,9.5l5.2-4.1h2.7l-5.4,3.7c0.3-0.1,0.6-0.1,0.9-0.1c0.5,0,0.9,0.1,1.3,0.2c0.4,0.2,0.7,0.4,0.9,0.7
		c0.2,0.3,0.4,0.6,0.5,1c0.1,0.4,0.2,0.8,0.2,1.2c0,0.2,0,0.3,0,0.5c0,0.2,0,0.3-0.1,0.5L54.9,21.8z"/>
	<path fill="#63B3E8" d="M71.7,9.5c0,0.4,0,0.7-0.2,1c-0.1,0.3-0.2,0.6-0.4,0.8s-0.4,0.4-0.6,0.5c-0.3,0.1-0.5,0.2-0.8,0.2
		c-0.3,0-0.7-0.1-0.9-0.2c-0.3-0.1-0.5-0.4-0.7-0.6c0.3-0.2,0.6-0.6,0.8-1c0.2-0.4,0.3-0.8,0.3-1.3c0-0.6-0.2-1-0.5-1.4
		c-0.3-0.3-0.8-0.5-1.4-0.5c-0.4,0-0.7,0.1-1,0.2c-0.3,0.1-0.6,0.3-0.8,0.6s-0.4,0.5-0.5,0.9c-0.1,0.3-0.2,0.7-0.2,1.1
		c0,0.6,0.1,1.2,0.4,1.7s0.7,1,1.1,1.6c0.4,0.5,0.9,1,1.4,1.5c0.5,0.5,1,1.1,1.4,1.7c0.4,0.6,0.8,1.2,1.1,1.9
		c0.3,0.7,0.4,1.4,0.4,2.3c0,0.9-0.2,1.7-0.6,2.5c-0.4,0.7-0.9,1.4-1.5,1.9s-1.4,1-2.3,1.3c-0.9,0.3-1.8,0.5-2.9,0.5
		c-0.9,0-1.6-0.1-2.3-0.3s-1.3-0.5-1.8-1c-0.5-0.4-0.9-0.9-1.2-1.5c-0.3-0.6-0.4-1.2-0.4-1.9c0-0.6,0.1-1.2,0.3-1.7
		c0.2-0.5,0.5-1,0.8-1.3c0.3-0.4,0.7-0.7,1.2-0.9c0.5-0.2,0.9-0.3,1.5-0.3c0.6,0,1.2,0.2,1.6,0.5c0.4,0.3,0.7,0.8,0.8,1.3
		c-0.5,0-0.9,0.1-1.3,0.2c-0.4,0.1-0.7,0.3-1,0.6c-0.3,0.2-0.5,0.5-0.6,0.9c-0.1,0.3-0.2,0.7-0.2,1.1c0,0.8,0.2,1.4,0.7,1.9
		c0.5,0.5,1.1,0.7,1.9,0.7c0.5,0,0.9-0.1,1.3-0.3c0.4-0.2,0.8-0.4,1-0.7c0.3-0.3,0.5-0.7,0.7-1.1c0.2-0.4,0.2-0.9,0.2-1.3
		c0-0.5-0.1-1-0.2-1.4c-0.2-0.5-0.4-0.9-0.7-1.3c-0.3-0.4-0.6-0.8-0.9-1.3c-0.3-0.4-0.7-0.8-1.1-1.2c-0.4-0.4-0.7-0.8-1.1-1.3
		c-0.3-0.4-0.6-0.9-0.9-1.3c-0.3-0.4-0.5-0.9-0.7-1.4s-0.2-1-0.2-1.5c0-0.7,0.2-1.4,0.5-2s0.7-1.1,1.3-1.6c0.5-0.4,1.2-0.8,1.9-1
		c0.7-0.2,1.5-0.4,2.4-0.4c0.7,0,1.4,0.1,2,0.3c0.6,0.2,1.1,0.4,1.5,0.8c0.4,0.3,0.7,0.7,1,1.2C71.6,8.5,71.7,9,71.7,9.5z"/>
	<path fill="#63B3E8" d="M69.7,32.9l4.5-21.2h3.9l-0.4,2c0.4-0.3,0.8-0.6,1.4-0.8s1.1-0.3,1.8-0.3c0.5,0,0.9,0.1,1.3,0.2
		c0.4,0.1,0.8,0.4,1,0.7c0.3,0.3,0.5,0.8,0.7,1.3c0.2,0.5,0.3,1.2,0.3,2c0,0.6,0,1.3-0.1,2c-0.1,0.7-0.2,1.4-0.4,2.1
		c-0.2,0.7-0.5,1.4-0.8,2s-0.7,1.2-1.2,1.7c-0.5,0.5-1.1,0.9-1.7,1.2s-1.4,0.5-2.3,0.5c-0.3,0-0.6,0-0.9-0.1
		c-0.3-0.1-0.5-0.1-0.7-0.2c-0.2-0.1-0.3-0.2-0.4-0.3s-0.2-0.2-0.3-0.4l-1.4,6.6L69.7,32.9z M75.6,23.3c0.1,0.1,0.2,0.3,0.3,0.4
		s0.4,0.2,0.7,0.2c0.5,0,0.9-0.1,1.3-0.4c0.4-0.2,0.7-0.6,1-1c0.3-0.4,0.5-0.9,0.7-1.4c0.2-0.5,0.4-1,0.5-1.6
		c0.1-0.5,0.2-1.1,0.3-1.6c0.1-0.5,0.1-1,0.1-1.4c0-0.5,0-0.9-0.1-1.2c-0.1-0.3-0.2-0.5-0.3-0.7c-0.1-0.1-0.3-0.2-0.4-0.3
		c-0.2,0-0.3-0.1-0.4-0.1c-0.3,0-0.6,0.1-1,0.3c-0.3,0.2-0.6,0.6-0.9,1L75.6,23.3z"/>
	<path fill="#63B3E8" d="M93.1,21.3c-0.3,0.7-0.5,1.4-0.8,1.9c-0.3,0.5-0.6,1-1,1.4c-0.3,0.4-0.7,0.7-1,0.9c-0.4,0.2-0.7,0.4-1,0.5
		c-0.3,0.1-0.7,0.2-1,0.2s-0.6,0.1-0.8,0.1c-0.4,0-0.8-0.1-1.1-0.2s-0.7-0.3-0.9-0.6c-0.3-0.3-0.5-0.6-0.6-1
		c-0.1-0.4-0.2-0.9-0.2-1.5c0-0.2,0-0.5,0.1-0.8c0-0.3,0.1-0.6,0.2-1l1.8-8.6h3.9l-1.9,9.2c0,0.1-0.1,0.3-0.1,0.4c0,0.1,0,0.3,0,0.4
		c0,0.4,0.1,0.6,0.3,0.8c0.2,0.1,0.5,0.2,0.8,0.2c0.3,0,0.5-0.1,0.8-0.2c0.2-0.1,0.5-0.3,0.7-0.5c0.2-0.2,0.4-0.5,0.6-0.8
		c0.2-0.3,0.3-0.6,0.4-1H93.1z M91.4,9.1c0,0.3-0.1,0.6-0.2,0.8c-0.1,0.3-0.3,0.5-0.5,0.7s-0.4,0.3-0.7,0.4
		c-0.3,0.1-0.5,0.2-0.8,0.2c-0.3,0-0.6-0.1-0.8-0.2c-0.3-0.1-0.5-0.3-0.7-0.4c-0.2-0.2-0.3-0.4-0.5-0.7s-0.2-0.5-0.2-0.8
		s0.1-0.6,0.2-0.8c0.1-0.3,0.3-0.5,0.5-0.7c0.2-0.2,0.4-0.4,0.7-0.5C88.7,7,89,6.9,89.3,6.9c0.3,0,0.6,0.1,0.8,0.2s0.5,0.3,0.7,0.5
		s0.4,0.4,0.5,0.7C91.4,8.5,91.4,8.8,91.4,9.1z"/>
	<path fill="#63B3E8" d="M90.9,26.1l2.9-13.5h3.9l-0.3,1.7c0.2-0.2,0.5-0.4,0.7-0.6c0.2-0.2,0.5-0.4,0.8-0.5s0.5-0.3,0.8-0.4
		c0.3-0.1,0.6-0.1,0.9-0.1c0.3,0,0.6,0.1,0.8,0.2c0.2,0.1,0.4,0.3,0.6,0.4s0.3,0.4,0.4,0.6c0.1,0.2,0.1,0.5,0.1,0.8
		c0,0.2,0,0.5-0.1,0.7c-0.1,0.2-0.2,0.4-0.4,0.6c-0.2,0.2-0.4,0.3-0.6,0.5c-0.2,0.1-0.5,0.2-0.9,0.2c-0.3,0-0.4,0-0.6-0.1
		c-0.1-0.1-0.2-0.2-0.3-0.3c-0.1-0.1-0.1-0.3-0.2-0.4c0-0.2-0.1-0.3-0.1-0.4c0-0.1-0.1-0.2-0.1-0.3c-0.1-0.1-0.2-0.1-0.3-0.1
		c-0.4,0-0.8,0.1-1,0.3s-0.6,0.4-0.9,0.7l-2.2,10.2H90.9z"/>
	<path fill="#63B3E8" d="M110.6,22.3c-0.1,0.8-0.4,1.4-0.7,1.9c-0.3,0.5-0.7,0.9-1.1,1.2s-0.9,0.5-1.4,0.6s-1,0.2-1.6,0.2
		c-0.6,0-1.2-0.1-1.7-0.2c-0.5-0.2-1-0.4-1.3-0.8s-0.6-0.8-0.8-1.3c-0.2-0.5-0.3-1.2-0.3-2c0-0.5,0.1-1.1,0.2-1.8s0.3-1.4,0.5-2.1
		c0.2-0.7,0.5-1.4,0.9-2.1c0.4-0.7,0.8-1.3,1.4-1.8c0.5-0.5,1.2-1,1.9-1.3c0.7-0.3,1.5-0.5,2.5-0.5c0.6,0,1.1,0.1,1.5,0.2
		c0.4,0.1,0.7,0.3,0.9,0.6s0.4,0.5,0.5,0.8c0.1,0.3,0.1,0.6,0.1,1c0,0.8-0.2,1.5-0.5,2.2c-0.3,0.7-0.8,1.3-1.4,1.8
		c-0.6,0.5-1.2,0.9-2,1.2c-0.7,0.3-1.5,0.5-2.3,0.5c0,0.1,0,0.3,0,0.4c0,0.1,0,0.3,0,0.4c0,0.4,0,0.8,0.1,1.1
		c0.1,0.3,0.2,0.5,0.4,0.7s0.3,0.3,0.5,0.4s0.4,0.1,0.7,0.1c0.3,0,0.5,0,0.8-0.1c0.3-0.1,0.6-0.2,0.8-0.3c0.3-0.1,0.5-0.3,0.8-0.5
		C110.1,22.7,110.3,22.5,110.6,22.3z M105.9,19.4c0.5,0,1-0.2,1.5-0.4s0.9-0.6,1.3-1c0.4-0.4,0.7-0.9,0.9-1.4s0.3-1.1,0.3-1.6
		c0-0.3,0-0.6-0.1-0.8s-0.3-0.3-0.5-0.3c-0.3,0-0.7,0.2-1,0.5c-0.3,0.3-0.6,0.8-0.9,1.3c-0.3,0.5-0.5,1.1-0.8,1.8
		S106.1,18.7,105.9,19.4z"/>
</g>
</svg>
